<?xml version="1.0" encoding="utf-8"?>
<!-- Generator: Adobe Illustrator 18.0.0, SVG Export Plug-In . SVG Version: 6.00 Build 0)  -->
<!DOCTYPE svg PUBLIC "-//W3C//DTD SVG 1.1//EN" "http://www.w3.org/Graphics/SVG/1.1/DTD/svg11.dtd">
<svg version="1.1" id="Capa_1" xmlns="http://www.w3.org/2000/svg" xmlns:xlink="http://www.w3.org/1999/xlink" x="0px" y="0px"
	 viewBox="-2 -2 50 50" enable-background="new -2 -2 50 50" xml:space="preserve">
<g>
	<g>
		<path fill="#FFFFFF" d="M31.7,30.7l-3.2-0.8c1.1-1.2,1.9-2.7,2.6-4.3c1.2-0.2,2.2-1.2,2.4-3.3c0.2-1.9-0.4-2.7-1.1-3.2V14
			c1.9-1.1,3.7-3.4,3.7-6c0-3.9-3.5-7.1-7.4-6.6C27.5-0.7,25.3-2,23-2c-2.4,0-4.5,1.4-5.7,3.4c-4-0.4-7.4,2.7-7.4,6.6
			c0,2.6,1.8,4.9,3.7,6v5.2c-0.7,0.4-1.3,1.3-1.1,3.2c0.2,2.1,1.2,3.1,2.4,3.3c0.6,1.6,1.5,3,2.6,4.3l-3.2,0.8
			c-4.8,1.2-8.2,5.5-8.2,10.5V45c0,1,1.4,3,3,3h27.7c1.7,0,2.8-1.8,3-3v-3.9C39.9,36.2,36.5,31.9,31.7,30.7z M13.8,46.2H9.1
			c-0.7,0-1.3-0.5-1.3-1.2v-3.9c0-3.8,2.4-7.2,5.9-8.4L13.8,46.2L13.8,46.2z M14.9,12.6c-1.6-0.7-3.2-2.6-3.2-4.6
			c0-3,2.8-5.4,5.9-4.8l0.7,0.2l0.3-0.7c0.8-1.7,2.4-3,4.3-3c1.9,0,3.6,1.2,4.3,3l0.3,0.7l0.7-0.2C31.4,2.6,34.3,5,34.3,8
			c0,2-1.6,3.9-3.2,4.6l-0.5,0.2v4.8H23h-7.6v-4.8L14.9,12.6z M15.5,19.5H23h7.4c0,0.2,0,0.4,0,0.6c0,4.8-3.2,10.9-7.4,10.9
			s-7.4-6.1-7.4-10.9C15.5,19.9,15.5,19.7,15.5,19.5z M38.1,45c0,0.7-0.5,1.2-1.2,1.2H15.6V30.1l3.4,1.2c1.2,0.9,2.5,1.5,4,1.5
			c1.4,0,2.8-0.6,4-1.5l4.3,1.1c4,1,6.8,4.6,6.8,8.7v6L38.1,45z"/>
		<circle fill="#FFFFFF" cx="19.1" cy="38" r="1.4"/>
		<circle fill="#FFFFFF" cx="19.1" cy="43.4" r="1.4"/>
		<circle fill="#FFFFFF" cx="24.5" cy="38" r="1.4"/>
		<circle fill="#FFFFFF" cx="24.5" cy="43.4" r="1.4"/>
		<path fill="#FFFFFF" d="M21,26.4h2h2c0.5,0,0.9-0.4,0.9-0.9c0-1-0.8-1.7-1.8-1.7H23h-1.1c-1,0-1.8,0.8-1.8,1.7
			C20,26,20.5,26.4,21,26.4z"/>
	</g>
</g>
</svg>
