<?xml version="1.0" encoding="utf-8"?>
<!-- Generator: Adobe Illustrator 18.0.0, SVG Export Plug-In . SVG Version: 6.00 Build 0)  -->
<!DOCTYPE svg PUBLIC "-//W3C//DTD SVG 1.1//EN" "http://www.w3.org/Graphics/SVG/1.1/DTD/svg11.dtd">
<svg version="1.1" id="Capa_1" xmlns="http://www.w3.org/2000/svg" xmlns:xlink="http://www.w3.org/1999/xlink" x="0px" y="0px"
	 viewBox="0 0 40 40" enable-background="new 0 0 40 40" xml:space="preserve">
<path fill="#FFFFFF" d="M0,16.2c0,4.3,1.7,8.4,4.7,11.5c3.1,3.1,7.1,4.7,11.5,4.7c3.3,0,6.4-1,9.1-2.8l9.5,9.5
	c0.6,0.6,1.3,0.9,2.1,0.9s1.6-0.3,2.1-0.9c1.2-1.2,1.2-3.1,0-4.3l-9.5-9.5c1.8-2.7,2.8-5.8,2.8-9.1c0-4.3-1.7-8.4-4.7-11.5
	C24.6,1.7,20.5,0,16.2,0C11.9,0,7.8,1.7,4.7,4.7C1.7,7.8,0,11.9,0,16.2z M1.8,16.2c0-3.8,1.5-7.4,4.2-10.1c2.7-2.7,6.3-4.2,10.1-4.2
	c3.8,0,7.4,1.5,10.1,4.2c2.7,2.7,4.2,6.3,4.2,10.1c0,3.8-1.5,7.4-4.2,10.1s-6.3,4.2-10.1,4.2c-3.8,0-7.4-1.5-10.1-4.2
	C3.3,23.6,1.8,20,1.8,16.2z M16.2,4.3c6.6,0,11.9,5.4,11.9,11.9c0,0.5-0.4,0.9-0.9,0.9s-0.9-0.4-0.9-0.9c0-5.6-4.5-10.1-10.1-10.1
	c-0.5,0-0.9-0.4-0.9-0.9C15.3,4.7,15.7,4.3,16.2,4.3z"/>
</svg>
