<?xml version="1.0" encoding="utf-8"?>
<!-- Generator: Adobe Illustrator 18.0.0, SVG Export Plug-In . SVG Version: 6.00 Build 0)  -->
<!DOCTYPE svg PUBLIC "-//W3C//DTD SVG 1.1//EN" "http://www.w3.org/Graphics/SVG/1.1/DTD/svg11.dtd">
<svg version="1.1" id="Capa_1" xmlns="http://www.w3.org/2000/svg" xmlns:xlink="http://www.w3.org/1999/xlink" x="0px" y="0px"
	 viewBox="0 0 200 200" enable-background="new 0 0 200 200" xml:space="preserve">
<g>
	<path fill="#EF8050" d="M194.8,31.6L168.2,4.9c-3.3-3.3-7.4-4.9-11.8-4.9c-4.4,0-8.8,1.7-11.8,4.9l-17.8,17.8
		c-3.6-1.1-7.7-0.3-10.4,2.2l-7.7,7.7c-3,3-3.6,7.7-1.9,11.5l-86.2,86.2c-0.3,0.3-0.6,0.6-0.6,0.8c0,0,0,0,0,0.3
		c-0.3,0.3-0.3,0.6-0.6,0.8l0,0L4.1,178.9l0,0l-1.7,4.9l-1.7,4.9c0,0.3,0,0.6-0.3,0.6c-0.6,2.7,0,4.9,0.8,6.3
		c0.3,0.6,0.6,1.1,0.8,1.4c1.7,1.9,4.1,3,6.9,3l0,0c0.3,0,0.6,0,0.8,0c0.6,0,0.8,0,1.1,0l0,0l0,0c0.3,0,0.6,0,0.6-0.3l6.9-2.2
		l49.4-16.2l0,0c0.8-0.3,1.4-0.6,1.9-1.1l86.4-86.4c1.1,0.6,2.2,0.6,3.6,0.6c2.7,0,5.2-1.1,7.1-3l7.7-7.7c3-3,3.6-7.1,2.2-10.7
		l17.8-17.8C201.4,48.9,201.4,38.1,194.8,31.6z M66.7,169.3l-14-14l82-82.3l14,14L66.7,169.3z M127.6,65.8l-82,82.3l-14-14.3l82-82
		L127.6,65.8z M21.7,185.7l-6.9-6.9l11.8-35.7L42,158.6l0,0l0,0L57.3,174L21.7,185.7z M161.6,82.9c-0.3-0.3-0.3-0.6-0.6-0.6
		l-42.5-42.8c-0.6-0.6-0.8-0.8-1.4-1.1l6-6.3l0.6,0.6l0,0l43.1,43.1c0.3,0.3,0.6,0.6,0.8,0.6L161.6,82.9z M187.7,48.3l-17.3,17.3
		l-35.9-36.2l17.3-17.3c2.5-2.5,6.9-2.5,9.3,0l26.6,26.6C190.1,41.4,190.1,45.5,187.7,48.3z"/>
</g>
</svg>
