<?xml version="1.0" encoding="utf-8"?>
<!-- Generator: Adobe Illustrator 18.0.0, SVG Export Plug-In . SVG Version: 6.00 Build 0)  -->
<!DOCTYPE svg PUBLIC "-//W3C//DTD SVG 1.1//EN" "http://www.w3.org/Graphics/SVG/1.1/DTD/svg11.dtd">
<svg version="1.1" xmlns="http://www.w3.org/2000/svg" xmlns:xlink="http://www.w3.org/1999/xlink" x="0px" y="0px"
	 viewBox="0 0 300 300" enable-background="new 0 0 300 300" xml:space="preserve">
<g id="Capa_4">
	<circle fill="#3E335A" cx="154.7" cy="153.1" r="145.3"/>
</g>
<g id="Capa_5">
	<circle fill="#68698C" cx="145.3" cy="143.7" r="145.3"/>
</g>
<g id="Capa_1">
	<g>
		<defs>
			<path id="SVGID_1_" d="M89.3,208.5c-14.5,9.4-20.5,29.5-28.9,53.3c23.9,16.8,53,26.6,84.5,26.6c31.1,0,59.9-9.6,83.7-26.1
				c-8.5-24.2-14.4-44.7-29.2-53.9c-25.1-15.7-40.2-19.5-55.1-19.7C129.1,188.6,114.2,192.3,89.3,208.5"/>
		</defs>
		<clipPath id="SVGID_2_">
			<use xlink:href="#SVGID_1_"  overflow="visible"/>
		</clipPath>
		<rect x="54.5" y="182.9" clip-path="url(#SVGID_2_)" fill="#FFFFFF" width="179.9" height="111.4"/>
	</g>
	<g>
		<defs>
			<path id="SVGID_3_" d="M89.3,208.5c-14.5,9.4-20.5,29.5-28.9,53.3c15,10.5,32,18.3,50.3,22.6c0-16.5,1.1-33,2.7-49.4
				c9.1-1.5,19-2.2,30.5-1.1l-21.7-42C113,194.8,102.6,199.9,89.3,208.5"/>
		</defs>
		<clipPath id="SVGID_4_">
			<use xlink:href="#SVGID_3_"  overflow="visible"/>
		</clipPath>
		<rect x="54.5" y="186.1" clip-path="url(#SVGID_4_)" fill="#E1E7FA" width="95.3" height="104.3"/>
	</g>
	<g>
		<defs>
			<path id="SVGID_5_" d="M119.5,192.9c5.4,30.6,13.2,36.6,22.2,41.2h5.4c10.5-7.6,20.5-19.8,22.5-40.8
				C173.6,150.3,112.4,153,119.5,192.9"/>
		</defs>
		<clipPath id="SVGID_6_">
			<use xlink:href="#SVGID_5_"  overflow="visible"/>
		</clipPath>
		<rect x="113" y="156.1" clip-path="url(#SVGID_6_)" fill="#E1E6F7" width="62.5" height="83.9"/>
	</g>
	<g>
		<defs>
			<path id="SVGID_7_" d="M119.5,192.9c5.3,29.7,12.8,36.2,21.4,40.8c1,0.1,2,0.2,3,0.3l-21.7-42
				C121.3,192.3,120.4,192.6,119.5,192.9"/>
		</defs>
		<clipPath id="SVGID_8_">
			<use xlink:href="#SVGID_7_"  overflow="visible"/>
		</clipPath>
		<rect x="113.6" y="186.1" clip-path="url(#SVGID_8_)" fill="#D0D8F2" width="36.2" height="53.8"/>
	</g>
	<g>
		<defs>
			<path id="SVGID_9_" d="M123.5,133.6h41.6v60.1c0,20.3-41.6,22.6-41.6,0V133.6"/>
		</defs>
		<clipPath id="SVGID_10_">
			<use xlink:href="#SVGID_9_"  overflow="visible"/>
		</clipPath>
		<rect x="117.6" y="127.7" clip-path="url(#SVGID_10_)" fill="#FFDDB8" width="53.4" height="88"/>
	</g>
	<g>
		<defs>
			<polyline id="SVGID_11_" points="165.1,171.4 165.1,163.7 123.5,163.7 123.5,192 165.1,171.4 			"/>
		</defs>
		<clipPath id="SVGID_12_">
			<use xlink:href="#SVGID_11_"  overflow="visible"/>
		</clipPath>
		<rect x="117.6" y="157.8" clip-path="url(#SVGID_12_)" fill="#E8C5A0" width="53.4" height="40.1"/>
	</g>
	<g>
		<defs>
			<path id="SVGID_13_" d="M139.6-1.2c19.4,0,35.8,11.3,41,26.8c24.9,0.7,44.8,18.5,44.8,40.4c0,22.3-20.8,40.4-46.3,40.4
				c-20,0-37-11-43.5-26.5c-7.5,10.8-21.1,18.1-36.6,18.1c-23.6,0-42.7-16.6-42.7-37.2c0-20.5,19.1-37.2,42.7-37.2l0.4,0
				C105.2,9.1,121-1.2,139.6-1.2"/>
		</defs>
		<clipPath id="SVGID_14_">
			<use xlink:href="#SVGID_13_"  overflow="visible"/>
		</clipPath>
		<rect x="50.3" y="-7.1" clip-path="url(#SVGID_14_)" fill="#FFFFFF" width="180.9" height="119.3"/>
	</g>
	<g>
		<defs>
			<path id="SVGID_15_" d="M144.3,57.1c88.1,0,52.4,116.3,0,116.3C91.9,173.4,56.2,57.1,144.3,57.1"/>
		</defs>
		<clipPath id="SVGID_16_">
			<use xlink:href="#SVGID_15_"  overflow="visible"/>
		</clipPath>
		<rect x="84.9" y="51.2" clip-path="url(#SVGID_16_)" fill="#F7D6B2" width="118.8" height="128.1"/>
	</g>
	<g>
		<defs>
			<path id="SVGID_17_" d="M144.3,57.1c88.1,0,52.4,116.3,0,116.3V57.1"/>
		</defs>
		<clipPath id="SVGID_18_">
			<use xlink:href="#SVGID_17_"  overflow="visible"/>
		</clipPath>
		<rect x="138.4" y="51.2" clip-path="url(#SVGID_18_)" fill="#FFDDB8" width="65.3" height="128.1"/>
	</g>
	<g>
		<defs>
			<path id="SVGID_19_" d="M123.5,191.6c0,21.5,18.1,13.3,18.1,42.5h5.4c0-29.2,18.1-21,18.1-42.5H123.5"/>
		</defs>
		<clipPath id="SVGID_20_">
			<use xlink:href="#SVGID_19_"  overflow="visible"/>
		</clipPath>
		<rect x="117.6" y="185.7" clip-path="url(#SVGID_20_)" fill="#FFDDB8" width="53.4" height="54.3"/>
	</g>
	<g>
		<defs>
			<path id="SVGID_21_" d="M147,234.1c5.3-4.6,21.9-32.9,22.6-44.1c0.7-11.2-4.5-18-4.5-18C166,191.1,148,201.2,147,234.1"/>
		</defs>
		<clipPath id="SVGID_22_">
			<use xlink:href="#SVGID_21_"  overflow="visible"/>
		</clipPath>
		<rect x="141.1" y="166" clip-path="url(#SVGID_22_)" fill="#FFFFFF" width="34.4" height="74"/>
	</g>
	<g>
		<defs>
			<path id="SVGID_23_" d="M141.6,234.1c-5.3-4.6-21.9-32.9-22.6-44.1c-0.7-11.2,4.5-18,4.5-18C122.7,191.1,140.6,201.2,141.6,234.1
				"/>
		</defs>
		<clipPath id="SVGID_24_">
			<use xlink:href="#SVGID_23_"  overflow="visible"/>
		</clipPath>
		<rect x="113.1" y="166" clip-path="url(#SVGID_24_)" fill="#F0F0F0" width="34.4" height="74"/>
	</g>
	<g>
		<defs>
			<path id="SVGID_25_" d="M109.7,284.3c-0.1-16.7,0.6-33.4,2.5-50.2c10.4-2.1,21.8-1.8,34.9,0c-8-0.1-14.3-0.2-20.4,0.2
				c-4.1,0.3-8,0.8-12.3,1.7c-1.3,16.6-2.1,32.7-2.5,48.8C111.2,284.6,110.5,284.4,109.7,284.3"/>
		</defs>
		<clipPath id="SVGID_26_">
			<use xlink:href="#SVGID_25_"  overflow="visible"/>
		</clipPath>
		<rect x="103.8" y="226.8" clip-path="url(#SVGID_26_)" fill="#D0D8F2" width="49.2" height="63.9"/>
	</g>
	<g>
		<defs>
			<path id="SVGID_27_" d="M120,243.2c1.4,0,2.6,1.1,2.6,2.6c0,1.4-1.1,2.6-2.6,2.6s-2.6-1.1-2.6-2.6
				C117.5,244.4,118.6,243.2,120,243.2"/>
		</defs>
		<clipPath id="SVGID_28_">
			<use xlink:href="#SVGID_27_"  overflow="visible"/>
		</clipPath>
		<rect x="111.6" y="237.3" clip-path="url(#SVGID_28_)" fill="#D0D8F2" width="16.9" height="16.9"/>
	</g>
	<g>
		<defs>
			<path id="SVGID_29_" d="M169.4,243.2c1.4,0,2.6,1.1,2.6,2.6c0,1.4-1.2,2.6-2.6,2.6c-1.4,0-2.6-1.1-2.6-2.6
				C166.8,244.4,168,243.2,169.4,243.2"/>
		</defs>
		<clipPath id="SVGID_30_">
			<use xlink:href="#SVGID_29_"  overflow="visible"/>
		</clipPath>
		<rect x="160.9" y="237.3" clip-path="url(#SVGID_30_)" fill="#D0D8F2" width="16.9" height="16.9"/>
	</g>
	<g>
		<defs>
			<path id="SVGID_31_" d="M118.5,265c1.4,0,2.5,1.1,2.5,2.5c0,1.4-1.1,2.5-2.5,2.5s-2.5-1.1-2.5-2.5C116,266.1,117.1,265,118.5,265
				"/>
		</defs>
		<clipPath id="SVGID_32_">
			<use xlink:href="#SVGID_31_"  overflow="visible"/>
		</clipPath>
		<rect x="110.3" y="259.3" clip-path="url(#SVGID_32_)" fill="#D0D8F2" width="16.3" height="16.3"/>
	</g>
	<g>
		<defs>
			<path id="SVGID_33_" d="M166,265c1.4,0,2.5,1.1,2.5,2.5c0,1.4-1.1,2.5-2.5,2.5c-1.4,0-2.5-1.1-2.5-2.5
				C163.5,266.1,164.6,265,166,265"/>
		</defs>
		<clipPath id="SVGID_34_">
			<use xlink:href="#SVGID_33_"  overflow="visible"/>
		</clipPath>
		<rect x="157.9" y="259.3" clip-path="url(#SVGID_34_)" fill="#D0D8F2" width="16.3" height="16.3"/>
	</g>
	<g>
		<defs>
			<path id="SVGID_35_" d="M173.2,76.3c-7.9,3.4-35.5,21-46.9,21.4c-11.4,0.3,2.1-2.1,5.2-5.5c3.1-3.4-21.7,7.9-27.6,8.3
				c-5.9,0.3,0-0.7,2.8-4.5c2.8-3.8-10,2.1-7.9,12.4c2.1,10.3-8.5,6.5-9.2-3.2c-0.7-9.6,0.3-11.3,4.1-20.2
				c3.8-9,53.8-21.4,69.7-21.4c15.9,0,29,15.9,32.8,22.7c3.8,6.9,4.6,14.4,2.9,20.6c-1.7,6.2-7.1,9.1-7.1,1.1
				C191.8,100.1,179.1,90.8,173.2,76.3"/>
		</defs>
		<clipPath id="SVGID_36_">
			<use xlink:href="#SVGID_35_"  overflow="visible"/>
		</clipPath>
		<rect x="83.4" y="57.7" clip-path="url(#SVGID_36_)" fill="#7D5F54" width="122.2" height="62.7"/>
	</g>
	<g>
		<defs>
			<path id="SVGID_37_" d="M201.4,97.2c3.2,0.7,4.5,7.3,2.8,14.7c-1.7,7.4-5.6,12.9-8.8,12.1c-3.2-0.7-4.5-7.3-2.8-14.7
				C194.3,101.9,198.2,96.4,201.4,97.2"/>
		</defs>
		<clipPath id="SVGID_38_">
			<use xlink:href="#SVGID_37_"  overflow="visible"/>
		</clipPath>
		<rect x="186" y="91.2" clip-path="url(#SVGID_38_)" fill="#FFDDB8" width="24.8" height="38.8"/>
	</g>
	<g>
		<defs>
			<path id="SVGID_39_" d="M88.2,97.2c-3.2,0.7-4.5,7.3-2.8,14.7c1.7,7.4,5.6,12.9,8.8,12.1c3.2-0.7,4.5-7.3,2.8-14.7
				C95.4,101.9,91.4,96.4,88.2,97.2"/>
		</defs>
		<clipPath id="SVGID_40_">
			<use xlink:href="#SVGID_39_"  overflow="visible"/>
		</clipPath>
		<rect x="78.8" y="91.2" clip-path="url(#SVGID_40_)" fill="#F7D6B2" width="24.8" height="38.8"/>
	</g>
	<g>
		<defs>
			<path id="SVGID_41_" d="M91.6,86.6c29.6-9.9,65-9.4,105.3,0l-10.1-41.4c-28.2-10.5-56.4-12.8-84.5,0L91.6,86.6"/>
		</defs>
		<clipPath id="SVGID_42_">
			<use xlink:href="#SVGID_41_"  overflow="visible"/>
		</clipPath>
		<rect x="85.8" y="30.6" clip-path="url(#SVGID_42_)" fill="#D0D8F2" width="117.1" height="61.9"/>
	</g>
	<g>
		<defs>
			<path id="SVGID_43_" d="M85.3,34.6c14.3-7.2,30.8-3.3,37,8.8c6.2,12.1-0.4,27.8-14.7,35c-14.3,7.2-30.8,3.3-37-8.8
				C64.5,57.5,71,41.8,85.3,34.6"/>
		</defs>
		<clipPath id="SVGID_44_">
			<use xlink:href="#SVGID_43_"  overflow="visible"/>
		</clipPath>
		<rect x="62.4" y="25.1" clip-path="url(#SVGID_44_)" fill="#D0D8F2" width="68" height="62.9"/>
	</g>
	<g>
		<defs>
			<path id="SVGID_45_" d="M87.5,28.9c16.3-8.3,34.8-4.6,41.3,8.1c6.5,12.8-1.5,29.8-17.8,38.1c-16.3,8.3-34.8,4.6-41.3-8.1
				C63.2,54.2,71.2,37.1,87.5,28.9"/>
		</defs>
		<clipPath id="SVGID_46_">
			<use xlink:href="#SVGID_45_"  overflow="visible"/>
		</clipPath>
		<rect x="61.5" y="18.5" clip-path="url(#SVGID_46_)" fill="#FFFFFF" width="75.4" height="66.8"/>
	</g>
	<g>
		<defs>
			<path id="SVGID_47_" d="M144.3,79.4c16.4,0.4,34,2.8,52.7,7.2l-10.1-41.4c-14.2-5.3-28.4-8.5-42.6-8.7V79.4"/>
		</defs>
		<clipPath id="SVGID_48_">
			<use xlink:href="#SVGID_47_"  overflow="visible"/>
		</clipPath>
		<rect x="138.4" y="30.6" clip-path="url(#SVGID_48_)" fill="#E1E6F7" width="64.4" height="61.9"/>
	</g>
	<g>
		<defs>
			<path id="SVGID_49_" d="M174.3,113.3c-4.6-2.3-9.1-1.6-10.7-1.2c-5.6,1.3-9.7,5.4-9.7,5.5c0,0,0.5-0.4,1.6-1
				c1.5-0.9,3.9-2.2,7-2.9c0.2,0,0.5-0.1,0.8-0.2c-0.9,0.9-1.5,2.1-1.5,3.5c0,2.7,2.2,4.9,5,4.9c2.7,0,5-2.2,5-4.9
				c0-1.4-0.6-2.6-1.5-3.5c1,0.2,2.1,0.5,3.3,0.9c1.4,0.5,2.5,1.2,3.2,1.6c1,0.6,2,1.3,3,1.9C178.9,116.7,177.1,114.7,174.3,113.3"
				/>
		</defs>
		<clipPath id="SVGID_50_">
			<use xlink:href="#SVGID_49_"  overflow="visible"/>
		</clipPath>
		<rect x="148" y="105.7" clip-path="url(#SVGID_50_)" fill="#7D5F54" width="37.7" height="22"/>
	</g>
	<g>
		<defs>
			<path id="SVGID_51_" d="M114.3,113.3c4.6-2.3,9.1-1.6,10.7-1.2c5.6,1.3,9.7,5.4,9.7,5.5c0,0-0.5-0.4-1.6-1
				c-1.5-0.9-3.9-2.2-7-2.9c-0.2,0-0.5-0.1-0.8-0.2c0.9,0.9,1.5,2.1,1.5,3.5c0,2.7-2.2,4.9-5,4.9s-5-2.2-5-4.9
				c0-1.4,0.6-2.6,1.5-3.5c-1,0.2-2.1,0.5-3.3,0.9c-1.4,0.5-2.5,1.2-3.2,1.6c-1,0.6-2,1.3-3,1.9
				C109.8,116.7,111.5,114.7,114.3,113.3"/>
		</defs>
		<clipPath id="SVGID_52_">
			<use xlink:href="#SVGID_51_"  overflow="visible"/>
		</clipPath>
		<rect x="103" y="105.7" clip-path="url(#SVGID_52_)" fill="#7D5F54" width="37.7" height="22"/>
	</g>
	<g>
		<defs>
			<path id="SVGID_53_" d="M144.6,152.4c10.1,0,17-4.8,17.2-4.4c0.2,0.5-7.3,6.8-17.2,6.8c-9.9,0-17.4-6.3-17.2-6.8
				C127.6,147.6,134.5,152.4,144.6,152.4"/>
		</defs>
		<clipPath id="SVGID_54_">
			<use xlink:href="#SVGID_53_"  overflow="visible"/>
		</clipPath>
		<rect x="121.5" y="142.1" clip-path="url(#SVGID_54_)" fill="#AD6146" width="46.2" height="18.6"/>
	</g>
</g>
</svg>
