<?xml version="1.0" encoding="utf-8"?>
<!-- Generator: Adobe Illustrator 18.0.0, SVG Export Plug-In . SVG Version: 6.00 Build 0)  -->
<!DOCTYPE svg PUBLIC "-//W3C//DTD SVG 1.1//EN" "http://www.w3.org/Graphics/SVG/1.1/DTD/svg11.dtd">
<svg version="1.1" id="Capa_1" xmlns="http://www.w3.org/2000/svg" xmlns:xlink="http://www.w3.org/1999/xlink" x="0px" y="0px"
	 viewBox="0 0 612 612" enable-background="new 0 0 612 612" xml:space="preserve">
<g>
	<g id="clock">
		<g>
			<path fill="#EF8050" d="M306,0C137,0,0,137,0,306s137,306,306,306s306-137,306-306S475,0,306,0z M306,573.2
				C158.5,573.2,38.8,453.5,38.8,306C38.8,158.5,158.5,38.8,306,38.8c147.5,0,267.2,119.6,267.2,267.2
				C573.2,453.5,453.5,573.2,306,573.2z M325.1,116h-37.7l0.6,209.8l132.1,113l23.3-32.9l-118.3-99.2L325.1,116L325.1,116z"/>
		</g>
	</g>
</g>
</svg>
