<?xml version="1.0" encoding="utf-8"?>
<!-- Generator: Adobe Illustrator 18.0.0, SVG Export Plug-In . SVG Version: 6.00 Build 0)  -->
<!DOCTYPE svg PUBLIC "-//W3C//DTD SVG 1.1//EN" "http://www.w3.org/Graphics/SVG/1.1/DTD/svg11.dtd">
<svg version="1.1" id="Capa_1" xmlns="http://www.w3.org/2000/svg" xmlns:xlink="http://www.w3.org/1999/xlink" x="0px" y="0px"
	 viewBox="0 0 62 50" enable-background="new 0 0 62 50" xml:space="preserve">
<path fill="#FFFFFF" d="M62,5.9c-2.3,1-4.7,1.7-7.3,2c2.6-1.6,4.6-4,5.6-7c-2.5,1.4-5.2,2.5-8.1,3.1c-2.3-2.5-5.6-4-9.3-4
	c-7,0-12.7,5.7-12.7,12.6c0,1,0.1,2,0.3,2.9C20,15,10.6,9.9,4.3,2.3c-1.1,1.9-1.7,4-1.7,6.3c0,4.4,2.2,8.2,5.7,10.5
	c-2.1-0.1-4-0.6-5.8-1.6c0,0.1,0,0.1,0,0.2c0,6.1,4.4,11.2,10.2,12.4c-1.1,0.3-2.2,0.4-3.4,0.4c-0.8,0-1.6-0.1-2.4-0.2
	c1.6,5,6.3,8.7,11.9,8.8C14.5,42.5,9,44.5,3,44.5c-1,0-2-0.1-3-0.2C5.6,47.9,12.3,50,19.5,50c23.4,0,36.2-19.2,36.2-35.9
	c0-0.5,0-1.1,0-1.6C58.1,10.7,60.3,8.5,62,5.9z"/>
</svg>
