<?xml version="1.0" encoding="utf-8"?>
<!-- Generator: Adobe Illustrator 18.0.0, SVG Export Plug-In . SVG Version: 6.00 Build 0)  -->
<!DOCTYPE svg PUBLIC "-//W3C//DTD SVG 1.1//EN" "http://www.w3.org/Graphics/SVG/1.1/DTD/svg11.dtd">
<svg version="1.1" id="Capa_1" xmlns="http://www.w3.org/2000/svg" xmlns:xlink="http://www.w3.org/1999/xlink" x="0px" y="0px"
	 viewBox="0 0 214.4 214.4" enable-background="new 0 0 214.4 214.4" xml:space="preserve">
<g>
	<path fill="#EF8050" d="M214.2,108.6c-6.2-24-20.5-43.4-42.4-57.7c-1.7-1.1-6.1-3.5-6.2-3.6l1.1-3.1c0.6-1.6-0.2-3.4-1.7-4.1
		c-9.5-4.7-33.6-11.3-57.9-11.4C83,28.8,58.8,35.4,49.3,40.2c-1.5,0.8-2.2,2.5-1.7,4.1l1.1,3.1c-0.1,0.1-4.5,2.5-6.2,3.6
		C20.6,65.2,6.3,84.6,0.1,108.6c-0.3,1.3,0.2,2.7,1.3,3.6l2.8,2c-3.4,30.4,6,57.1,7.9,62.2c2.1,5.6,7.5,9.1,13.9,9.1
		c6.2,0,14-3.3,16.6-10.7c0-0.1,6-18.1,11.2-24.1c0.6,0.6,1.4,0.9,2.3,0.9c0.6,0,1.1-0.1,1.7-0.4c6.7-3.8,15.1-6.1,24.7-6.6l1.3,3.7
		c0.4,1.3,1.6,2.1,2.9,2.3c0.3,0,1.2,0.1,7.1,0.1l1.3,0c4,0,7-3,7.8-7.8c0.1-0.5,2.6-13.5,4.3-13.5c1.8,0,4.2,13.1,4.3,13.5
		c0.9,4.8,3.9,7.8,7.8,7.8l1.3,0c5.9,0,6.8-0.1,7.1-0.1c1.3-0.1,2.4-1,2.9-2.3l1.3-3.7c9.7,0.6,18,2.8,24.7,6.6
		c0.5,0.3,1.1,0.4,1.7,0.4c0.8,0,1.7-0.3,2.3-0.9c5.2,6,8.6,13.9,10.9,23.3c2.9,11.9,10.7,11.6,16.9,11.6c6.4,0,11.7-3.5,13.9-9.1
		c2-5.1,11.3-31.8,7.9-62.2l2.8-2C214.1,111.4,214.6,110,214.2,108.6z M36.3,172.5l-0.1,0.3c-1.5,4-6.4,6.1-10.2,6.1
		c-3.7,0-6.4-1.8-7.6-4.8c-1.8-4.6-10-27.9-7.9-55.1l37.8,27.9C42.6,153.6,38.6,162.2,36.3,172.5z M55.6,143.8L7.2,108.1
		c6-21.3,19.1-38.7,38.9-51.6c1.3-0.8,3-1.8,4.8-2.8L80.1,138C71,138.7,57.7,143.3,55.6,143.8z M125,143.9c-1,0-5.6,0-5.6,0
		c-0.6,0-5.2-21.9-12.2-21.9c-6.9,0-11.5,21.9-12.2,21.9c0,0-4.7,0-5.6,0L55,45c10.2-4.2,31.4-9.4,52.2-9.5
		c20.8,0.1,42,5.3,52.2,9.5L125,143.9z M196,174.1c-1.2,3.1-3.9,4.8-7.6,4.8c-3.9,0-8.9,1.2-10.3-6.4c-1.8-9.3-6.3-18.9-12-25.7
		l37.8-27.9C205.9,146.1,197.8,169.4,196,174.1z M158.3,144.4c-6.8-3.5-14.9-5.7-24.1-6.4l29.2-84.2c1.7,1,3.4,1.9,4.8,2.8
		c19.8,12.9,32.9,30.2,38.9,51.6C207.1,108.1,160.1,143,158.3,144.4z"/>
</g>
</svg>
