<?xml version="1.0" encoding="utf-8"?>
<!-- Generator: Adobe Illustrator 18.0.0, SVG Export Plug-In . SVG Version: 6.00 Build 0)  -->
<!DOCTYPE svg PUBLIC "-//W3C//DTD SVG 1.1//EN" "http://www.w3.org/Graphics/SVG/1.1/DTD/svg11.dtd">
<svg version="1.1" id="Capa_1" xmlns="http://www.w3.org/2000/svg" xmlns:xlink="http://www.w3.org/1999/xlink" x="0px" y="0px"
	 viewBox="0 0 200 200" enable-background="new 0 0 200 200" xml:space="preserve">
<path fill="#EF8050" d="M200,68.7c0-0.1,0-0.2,0-0.3c0-0.1,0-0.1,0-0.2c0-0.1,0-0.1,0-0.2c0-0.1,0-0.1,0-0.2c0-0.1,0-0.1,0-0.2
	c0-0.1,0-0.2-0.1-0.2c0-0.1,0-0.1-0.1-0.2c0-0.1-0.1-0.1-0.1-0.2c0-0.1-0.1-0.1-0.1-0.2c0-0.1-0.1-0.1-0.1-0.2
	c0-0.1-0.1-0.1-0.1-0.2c0-0.1-0.1-0.1-0.1-0.1c0-0.1-0.1-0.1-0.1-0.2c0,0-0.1-0.1-0.1-0.1c-0.1-0.1-0.1-0.1-0.2-0.2
	c0,0-0.1-0.1-0.1-0.1c-0.1-0.1-0.1-0.1-0.2-0.2c-0.1,0-0.1-0.1-0.2-0.1c-0.1,0-0.1-0.1-0.2-0.1c-0.1,0-0.1-0.1-0.2-0.1
	c0,0-0.1,0-0.1-0.1l-79.6-45.5c-1.4-0.8-3.2-0.7-4.5,0.2L100,29.8c-2-10.8-11.5-19.1-22.9-19.1h-4.3c-2.3,0-4.2,1.9-4.2,4.2
	s1.9,4.2,4.2,4.2h4.3c6.9,0,12.7,4.7,14.4,11.1c-9.4,1.9-16.7,9.3-18.5,18.7L1.8,99.6c0,0-0.1,0.1-0.1,0.1c0,0-0.1,0.1-0.1,0.1
	c-0.1,0.1-0.2,0.1-0.2,0.2c0,0,0,0-0.1,0c-0.1,0.1-0.2,0.2-0.3,0.3c0,0,0,0,0,0.1c-0.1,0.1-0.1,0.2-0.2,0.2c0,0-0.1,0.1-0.1,0.1
	c0,0.1-0.1,0.1-0.1,0.2c0,0.1-0.1,0.1-0.1,0.2c0,0.1-0.1,0.1-0.1,0.2c0,0.1-0.1,0.1-0.1,0.2c0,0.1,0,0.1-0.1,0.2
	c0,0.1,0,0.1-0.1,0.2c0,0.1,0,0.1-0.1,0.2c0,0.1,0,0.1,0,0.2c0,0.1,0,0.2-0.1,0.4c0,0,0,0.1,0,0.1c0,0.1,0,0.2,0,0.3c0,0,0,0,0,0
	v82.1c0,1.2,0.5,2.4,1.5,3.2c0.8,0.7,1.7,1,2.7,1c0.2,0,0.4,0,0.7-0.1l191.6-30.5c2-0.3,3.5-2.1,3.5-4.1V68.8
	C200,68.8,200,68.7,200,68.7z M96.1,38.1c8.4,0,15.2,6.8,15.2,15.2s-6.8,15.2-15.2,15.2s-15.2-6.8-15.2-15.2S87.8,38.1,96.1,38.1z
	 M8.4,168l156-27.6c2.3-0.4,3.8-2.6,3.4-4.9c-0.4-2.3-2.6-3.8-4.9-3.4L8.4,159.5v-14.2l156-27.6c2.3-0.4,3.8-2.6,3.4-4.9
	c-0.4-2.3-2.6-3.8-4.9-3.4L8.4,136.8v-13.5l166.9-29.8v60.1L8.4,180.2V168z M183.7,152.3V88.5c0-1.2-0.5-2.4-1.5-3.2
	c-1-0.8-2.2-1.1-3.4-0.9L8.4,114.8v-8.2l159.1-27.3c2.3-0.4,3.8-2.6,3.4-4.8c-0.4-2.3-2.6-3.8-4.8-3.4L21.6,95.8L73.2,59
	c2.6,10.3,11.8,17.9,22.9,17.9c13,0,23.6-10.6,23.6-23.6c0-8.3-4.3-15.5-10.7-19.8l7.5-5.3l75.1,43V151L183.7,152.3z"/>
</svg>
