<?xml version="1.0" encoding="utf-8"?>
<!-- Generator: Adobe Illustrator 18.0.0, SVG Export Plug-In . SVG Version: 6.00 Build 0)  -->
<!DOCTYPE svg PUBLIC "-//W3C//DTD SVG 1.1//EN" "http://www.w3.org/Graphics/SVG/1.1/DTD/svg11.dtd">
<svg version="1.1" id="Capa_1" xmlns="http://www.w3.org/2000/svg" xmlns:xlink="http://www.w3.org/1999/xlink" x="0px" y="0px"
	 viewBox="10 10 180 180" enable-background="new 10 10 180 180" xml:space="preserve">
<g>
	<g>
		<path fill="#EF8050" d="M153,68.2c0.6,0.9,1.7,1.3,2.8,1.3c0.6,0,1.3-0.2,1.8-0.4c1.6-0.9,2-2.7,1-4.1
			c-0.1-0.2-10.4-14.6-1.7-24.6c4.9-5.5,5.6-12.3,2.5-19.9c-2.3-5.4-5.9-9.3-6-9.4c-1.2-1.2-3.3-1.4-4.8-0.4
			c-1.4,1.1-1.6,2.9-0.4,4.2c0.2,0.2,11.6,12.7,3.5,21.9C140,50,152.5,67.4,153,68.2z"/>
		<path fill="#EF8050" d="M175.5,68.2c0.6,0.9,1.7,1.3,2.8,1.3c0.6,0,1.3-0.2,1.8-0.4c1.6-0.9,2-2.7,1-4.1
			c-0.1-0.2-10.4-14.6-1.7-24.6c4.9-5.5,5.6-12.3,2.5-19.9c-2.3-5.4-5.9-9.3-6-9.4c-1.2-1.2-3.3-1.4-4.8-0.4
			c-1.4,1.1-1.6,2.9-0.4,4.1c0.1,0.1,11.6,12.7,3.5,21.9C162.5,50,175,67.4,175.5,68.2z"/>
		<path fill="#EF8050" d="M22.1,69.5c0.6,0.9,1.7,1.3,2.9,1.3c0.6,0,1.3-0.2,1.8-0.4c1.6-0.9,2-2.7,1-4.1
			c-0.1-0.1-10.6-14.6-1.6-24.5c5-5.5,5.8-12.3,2.6-19.9c-2.4-5.4-6.1-9.3-6.2-9.4c-1.3-1.3-3.5-1.5-4.9-0.4s-1.6,2.9-0.4,4.1
			c0.1,0.1,12,12.7,3.6,21.9C8.8,51.3,21.5,68.8,22.1,69.5z"/>
		<path fill="#EF8050" d="M45.2,69.5c0.6,0.9,1.7,1.3,2.9,1.3c0.6,0,1.3-0.2,1.8-0.4c1.6-0.9,2-2.7,1-4.1
			c-0.1-0.2-10.7-14.6-1.7-24.6c5-5.5,5.8-12.3,2.6-19.9c-2.4-5.4-6.1-9.3-6.2-9.4c-1.2-1.2-3.4-1.4-4.9-0.4
			c-1.4,1.1-1.6,2.9-0.4,4.1c0.1,0.1,12,12.7,3.6,21.9C31.9,51.3,44.7,68.8,45.2,69.5z"/>
		<path fill="#EF8050" d="M181.9,153.5h-6.3c-1.5-39.9-31.5-71.4-68.1-74.8v-3.2c3.7-2.4,6-7.7,6-12.4c0-7.4-6.5-13.4-13.3-13.4
			c-0.1,0-0.3,0-0.3,0c-6.9,0-13.3,6-13.3,13.4c0,4.7,2.3,10.1,6,12.4v3.2c-36.7,3.4-66.7,34.9-68.1,74.8h-6.3
			c-5.5,0-8.1,6.7-8.1,12.6v5.9c0,5.9,4.4,11.6,9.9,11.6h160.2c5.5,0,9.9-5.7,9.9-11.6v-7.9C190,158.3,187.4,153.5,181.9,153.5z
			 M92.4,65c0-3.9,3.8-8,7.4-8c0.1,0,0.3,0,0.3,0c3.6,0,7.4,4.1,7.4,8c0,2.8-2.5,6.4-5,7.5c-1.1,0.5-1,0.7-1,2v4.9h-3v-4.9
			c0-1.3,0.2-1.5-1-2C95,71.3,92.4,67.8,92.4,65z M184,170.1c0,2.4-1.8,4.3-4,4.3H19.9c-2.2,0-4-1.9-4-4.3v-4c0-2.4,1.8-4.3,4-4.3
			h4.9h0.1h106.9c1.7,0,3-3.4,3-5.2c0-1.8-1.3-4.2-3-4.2H34.8c1.6-38.6,28.5-63.7,64.8-63.9h0.8c36.2,0.2,63.2,25.3,64.8,63.9h-15
			c-1.7,0-2.1,2.4-2.1,4.2c0,1.8,1.3,5.2,3,5.2h23h6.1c2.2,0,4,1.9,4,4.3L184,170.1L184,170.1z"/>
	</g>
</g>
</svg>
