<?xml version="1.0" encoding="utf-8"?>
<!-- Generator: Adobe Illustrator 18.0.0, SVG Export Plug-In . SVG Version: 6.00 Build 0)  -->
<!DOCTYPE svg PUBLIC "-//W3C//DTD SVG 1.1//EN" "http://www.w3.org/Graphics/SVG/1.1/DTD/svg11.dtd">
<svg version="1.1" id="Capa_1" xmlns="http://www.w3.org/2000/svg" xmlns:xlink="http://www.w3.org/1999/xlink" x="0px" y="0px"
	 viewBox="0 0 162 156" enable-background="new 0 0 162 156" xml:space="preserve">
<path fill="#EF8050" d="M155.3,149.9L92.1,35.3c-0.5-1-1.1-2.1-1.8-3.2c-1.5-2.5-3.3-4.8-5.2-6.9l-0.9-0.9c0,0-0.1-0.1-0.1-0.1
	c-2.9-2.9-6.9-4.4-11.7-4.4c-8.6,0-19.2,4.8-29,12.8V4c0-2.2-1.8-4-4-4c-2.2,0-4,1.8-4,4v25.9L17.2,11.6c-1.5-1.5-4.1-1.5-5.6,0
	c-0.8,0.8-1.2,1.8-1.2,2.8s0.4,2,1.2,2.8l18.3,18.3L4,35.5c-2.2,0-4,1.8-4,4c0,2.2,1.8,4,4,4l26.7,0h0h1.9
	c-5.1,6.2-8.9,12.8-11,19.1c-3.1,9.2-2.1,16.9,2.6,21.6c0.2,0.2,0.5,0.5,0.8,0.7c0.1,0.1,0.2,0.2,0.3,0.3c2.1,2,4.5,3.8,6.9,5.3
	c0,0,0.1,0.1,0.2,0.1l3,1.6l114.9,63.4c0.6,0.3,1.3,0.5,1.9,0.5c0,0,0,0,0,0c2.2,0,3.9-1.8,3.9-4C156,151.2,155.8,150.5,155.3,149.9
	z M99.9,118.7l9.4-9.4c1.5-1.5,1.5-4.1,0-5.6c-1.5-1.5-4.1-1.5-5.6,0l-11,11L42.2,86.9l22.3-22.3c1.5-1.5,1.5-4.1,0-5.6
	c-1.5-1.5-4.1-1.5-5.6,0L35,82.8c-1.6-1-3.1-2.2-4.4-3.5c-0.2-0.2-0.4-0.3-0.6-0.5c-0.1-0.1-0.2-0.2-0.3-0.3
	c-5.1-5.1-0.8-20.8,13.6-35.2c9.5-9.5,20.9-15.7,29.1-15.7c2.7,0,4.7,0.7,6.1,2l0.8,0.9c0,0,0,0,0,0.1c1.6,1.7,3.1,3.6,4.3,5.6
	c0.6,1,1.1,1.8,1.5,2.7c0,0.1,0.1,0.1,0.1,0.2l13.7,24.8L81.3,81.3c-1.5,1.5-1.5,4.1,0,5.6c0.8,0.8,1.8,1.2,2.8,1.2
	c1,0,2-0.4,2.8-1.2L102.8,71l39.1,70.9L99.9,118.7z"/>
</svg>
